<?xml version="1.0" encoding="UTF-8"?>
<svg version="1.1" viewBox="0 0 2048 1156" width="1280" height="723" xmlns="http://www.w3.org/2000/svg">
<path transform="translate(347,440)" d="m0 0 11 6 28 17 27 14 17 10 26 14 21 12 22 13 24 14 25 15 19 12 16 9 24 14 24 13 27 15 20 11 24 14 25 13 11 7 5 8 13 30 11 21 4 7-5-1-24-14-44-24-28-15-47-26-22-12-24-14-20-11-4-1-10 5h-5l-10-8-13-12-6-5 2-2 7-1v-2l-5-2-13-8-22-12-41-23-24-14-23-13-11-7-4-5-13-29-10-21-5-9z" fill="#010001"/>
<path transform="translate(1314,468)" d="m0 0h18l5 2 56 56 8 7 54 54 2 1v-120h37l1 145v41h-22l-7-2-10-9-9-10-20-20-7-8-65-65-4-3v41l-1 76h-35l-1-3z" fill="#010001"/>
<path transform="translate(1172,466)" d="m0 0h31l15 4 15 6 15 10 12 11 10 13 9 19 4 16 1 9v16l-2 15-5 15-8 15-9 11-7 7-14 10-15 8-12 4-18 3h-15l-18-3-16-6-11-6-12-9-6-5-7-8-9-13-6-12-4-14-2-15 1-19 4-17 7-16 9-13 14-14 15-10 18-8zm8 36-17 4-11 6-11 9-9 12-4 8-2 9v24l4 12 6 11 13 13 12 7 13 4h25l16-6 11-7 9-9 8-14 3-12v-21l-4-14-6-10-9-10-8-7-12-6-13-3z" fill="#010001"/>
<path transform="translate(1629,468)" d="m0 0h58l-2 5-10 16-10 14-1 1-95 1v44h79v33l-14 1h-65v36h96l13 1 1 1v32l-1 1h-145l-1-5v-174l2-6z" fill="#010001"/>
<path transform="translate(856,465)" d="m0 0 22 1 19 5 17 8 14 10 3 3-1 5-18 18-2 3-5-1-10-7-11-5-13-3h-16l-16 4-13 7-10 9-7 9-5 11-3 17 1 16 4 13 7 12 8 8 13 8 15 5 8 1h12l15-3 14-6 10-7 4 2 13 13 6 5-1 4-7 7-15 10-13 6-21 5h-25l-18-4-18-8-12-8-10-9-7-7-10-15-7-17-3-14-1-17 2-16 5-17 8-16 8-11 12-12 15-10 16-7 16-4z" fill="#010001"/>
<path transform="translate(961,467)" d="m0 0h35l1 1 1 152h76l1 1v32l-1 1h-113l-1-1v-184z" fill="#010001"/>
<path transform="translate(763,441)" d="m0 0h2l-3 9-14 30-10 24-5 5-23 13-25 14-23 13-22 12-23 12-6 3-7-1-15-9-18-12v-4l16-10 25-14 23-13 27-15 29-16 44-24 21-12z" fill="#010001"/>
<path transform="translate(492,598)" d="m0 0 6 3 7 7 11 9 9 9-5 5-23 13-25 14-49 28-27 15-24 14-13 8-10 6-3-1 12-23 14-35 5-8 17-10 27-15 24-14 24-13 18-10z" fill="#010001"/>
</svg>
